<svg width="34" height="34" viewBox="0 0 34 34" fill="none" xmlns="http://www.w3.org/2000/svg">
<path d="M17 16.2916C16.0607 16.2916 15.1599 15.9184 14.4957 15.2543C13.8315 14.5901 13.4583 13.6892 13.4583 12.7499C13.4583 11.8106 13.8315 10.9098 14.4957 10.2456C15.1599 9.58139 16.0607 9.20825 17 9.20825C17.9393 9.20825 18.8401 9.58139 19.5043 10.2456C20.1685 10.9098 20.5417 11.8106 20.5417 12.7499C20.5417 13.215 20.4501 13.6756 20.2721 14.1053C20.0941 14.535 19.8332 14.9254 19.5043 15.2543C19.1755 15.5831 18.785 15.844 18.3553 16.022C17.9256 16.2 17.4651 16.2916 17 16.2916ZM17 2.83325C14.3699 2.83325 11.8476 3.87804 9.98786 5.73778C8.12812 7.59751 7.08333 10.1199 7.08333 12.7499C7.08333 20.1874 17 31.1666 17 31.1666C17 31.1666 26.9167 20.1874 26.9167 12.7499C26.9167 10.1199 25.8719 7.59751 24.0121 5.73778C22.1524 3.87804 19.6301 2.83325 17 2.83325Z" fill="#E6E6E6"/>
</svg>
