<svg width="24" height="24" viewBox="0 0 24 24" fill="none" xmlns="http://www.w3.org/2000/svg">
<path d="M11.4232 0.810944L10.8197 5.63926L7.99412 3.5543L9.74982 6.76398L6.70482 6.37993L9.30615 8.01558L6.77968 7.42927L6.67482 7.82433L5.01498 14.0739L5.01357 14.0803C4.80498 14.9789 5.0243 15.7946 5.48738 16.3906C5.86337 16.8744 6.38457 17.2213 6.95738 17.4253L5.97465 21.6596C5.47191 21.5512 5.05894 21.4825 4.73312 21.4796C4.2046 21.4748 3.90113 21.6411 3.79852 22.0833L8.5636 23.1891C8.72949 22.4743 8.10465 22.1757 6.79655 21.8503L7.77919 17.616C8.38323 17.6851 9.00404 17.6031 9.55458 17.3343C10.2329 17.0033 10.789 16.3676 10.9975 15.469L10.999 15.4625L12.0898 9.98265L12.958 14.2007L12.9595 14.2072C13.1739 15.1044 13.7343 15.7365 14.4147 16.0631C14.967 16.3283 15.5882 16.4062 16.1918 16.3331L17.2021 20.561C15.8962 20.8949 15.2733 21.1976 15.4438 21.9112L20.2015 20.7744C20.096 20.3328 19.7915 20.1685 19.263 20.1768C18.9372 20.1819 18.5247 20.2532 18.0227 20.3648L17.0124 16.137C17.5838 15.9294 18.1027 15.579 18.4755 15.0928C18.9347 14.4938 19.1487 13.6767 18.9344 12.7795L18.9328 12.773L17.1247 6.14007L15.2916 6.57816L17.6231 5.03569L14.2215 5.96832L15.7028 2.04549L12.8224 5.41974L11.4232 0.810944ZM16.5258 7.15069L17.2493 9.80518L12.8227 9.35865L12.5631 8.09752L16.5258 7.15069ZM7.38535 8.43591L11.3541 9.35691L11.2427 9.91604L6.86588 10.3918L7.38535 8.43591ZM13.0009 10.2245L13.7643 10.3015C13.9296 11.2992 14.3927 13.8387 14.9106 14.3259C15.4217 14.8069 17.0125 14.4476 17.0125 14.4476C15.2842 14.5822 14.2981 11.921 13.8199 10.3071L17.487 10.677L18.1142 12.978C18.274 13.6495 18.1252 14.163 17.8059 14.5794C17.4863 14.9964 16.9726 15.3039 16.4116 15.438C15.8506 15.572 15.2534 15.53 14.7798 15.3026C14.3069 15.0756 13.942 14.6849 13.7809 14.0141L13.0009 10.2245ZM11.0701 10.7835L10.1749 15.281C10.0182 15.953 9.65588 16.3461 9.18446 16.5762C8.71234 16.8067 8.11543 16.8526 7.55363 16.7222C6.99179 16.5919 6.47602 16.2877 6.15366 15.8729C5.83177 15.4586 5.67957 14.9461 5.83491 14.2738L6.6338 11.2657L7.54444 11.1668C7.17198 12.2444 6.48104 14.4001 6.6826 15.0249C6.89799 15.6929 8.46446 16.1464 8.46446 16.1464C6.81235 15.1798 7.23432 12.7335 7.61284 11.1593L11.0701 10.7835Z" fill="#E6E6E6"/>
</svg>
