<svg width="18" height="18" viewBox="0 0 18 18" fill="none" xmlns="http://www.w3.org/2000/svg">
<path d="M1.5 16.5L5.25 6L12 12.75L1.5 16.5ZM10.9125 9.4125L10.125 8.625L14.325 4.425C14.725 4.025 15.2062 3.825 15.7687 3.825C16.3312 3.825 16.8125 4.025 17.2125 4.425L17.6625 4.875L16.875 5.6625L16.425 5.2125C16.25 5.0375 16.0312 4.95 15.7687 4.95C15.5062 4.95 15.2875 5.0375 15.1125 5.2125L10.9125 9.4125ZM7.9125 6.4125L7.125 5.625L7.575 5.175C7.75 5 7.8375 4.7875 7.8375 4.5375C7.8375 4.2875 7.75 4.075 7.575 3.9L7.0875 3.4125L7.875 2.625L8.3625 3.1125C8.7625 3.5125 8.9625 3.9875 8.9625 4.5375C8.9625 5.0875 8.7625 5.5625 8.3625 5.9625L7.9125 6.4125ZM9.4125 7.9125L8.625 7.125L11.325 4.425C11.5 4.25 11.5875 4.03125 11.5875 3.76875C11.5875 3.50625 11.5 3.2875 11.325 3.1125L10.125 1.9125L10.9125 1.125L12.1125 2.325C12.5125 2.725 12.7125 3.20625 12.7125 3.76875C12.7125 4.33125 12.5125 4.8125 12.1125 5.2125L9.4125 7.9125ZM12.4125 10.9125L11.625 10.125L12.825 8.925C13.225 8.525 13.7062 8.325 14.2687 8.325C14.8312 8.325 15.3125 8.525 15.7125 8.925L16.9125 10.125L16.125 10.9125L14.925 9.7125C14.75 9.5375 14.5312 9.45 14.2687 9.45C14.0062 9.45 13.7875 9.5375 13.6125 9.7125L12.4125 10.9125Z" fill="#E6E6E6"/>
</svg>
